<svg width="54" height="70" viewBox="0 0 54 70" fill="none" xmlns="http://www.w3.org/2000/svg">
<g clip-path="url(#clip0_52_31)">
<path d="M0.0345306 0V60H53.9012V0H0.0345306Z" stroke="white" stroke-width="3"/>
<path fill-rule="evenodd" clip-rule="evenodd" d="M40.394 31.4647C40.394 38.8869 34.3496 44.9314 26.9718 44.9314C19.5496 44.9314 13.5496 38.8869 13.5496 31.4647C13.5496 24.0425 19.594 17.998 26.9718 17.998C34.394 17.998 40.394 24.0425 40.394 31.4647Z" fill="white"/>
<mask id="mask0_52_31" style="mask-type:luminance" maskUnits="userSpaceOnUse" x="13" y="17" width="28" height="29">
<path d="M13.4069 17.9985H40.5624V45.1541H13.4069V17.9985Z" fill="white"/>
</mask>
<g mask="url(#mask0_52_31)">
<path d="M35.3635 31.4674C35.3635 38.4008 31.5858 44.0452 26.9635 44.0452C22.3413 44.0452 18.5635 38.4008 18.5635 31.4674C18.5635 24.5341 22.3413 18.8896 26.9635 18.8896C31.5858 18.9341 35.3635 24.5341 35.3635 31.4674Z" stroke="#BC2112" stroke-width="1.0959" stroke-miterlimit="10" stroke-linecap="round" stroke-linejoin="round"/>
</g>
<mask id="mask1_52_31" style="mask-type:luminance" maskUnits="userSpaceOnUse" x="13" y="17" width="28" height="29">
<path d="M13.4069 17.9985H40.5624V45.1541H13.4069V17.9985Z" fill="white"/>
</mask>
<g mask="url(#mask1_52_31)">
<path d="M39.4994 31.4674C39.4994 38.4008 33.8994 44.0452 26.966 44.0452C20.0327 44.0452 14.4327 38.4008 14.4327 31.4674C14.4327 24.5341 20.0327 18.8896 26.966 18.8896C33.8549 18.9341 39.4994 24.5341 39.4994 31.4674Z" stroke="#BC2112" stroke-width="1.1298" stroke-miterlimit="10" stroke-linecap="round" stroke-linejoin="round"/>
</g>
<mask id="mask2_52_31" style="mask-type:luminance" maskUnits="userSpaceOnUse" x="13" y="17" width="28" height="29">
<path d="M13.4069 17.9985H40.5624V45.1541H13.4069V17.9985Z" fill="white"/>
</mask>
<g mask="url(#mask2_52_31)">
<path d="M14.4327 31.4683H39.4105" stroke="#BC2112" stroke-width="1.1299" stroke-miterlimit="10" stroke-linecap="round" stroke-linejoin="round"/>
</g>
<mask id="mask3_52_31" style="mask-type:luminance" maskUnits="userSpaceOnUse" x="13" y="17" width="28" height="29">
<path d="M13.4069 17.9985H40.5624V45.1541H13.4069V17.9985Z" fill="white"/>
</mask>
<g mask="url(#mask3_52_31)">
<path d="M26.9709 18.9336V44.0447" stroke="#BC2112" stroke-width="1.1328" stroke-miterlimit="10" stroke-linecap="round" stroke-linejoin="round"/>
</g>
<mask id="mask4_52_31" style="mask-type:luminance" maskUnits="userSpaceOnUse" x="13" y="17" width="28" height="29">
<path d="M13.4069 17.9985H40.5624V45.1541H13.4069V17.9985Z" fill="white"/>
</mask>
<g mask="url(#mask4_52_31)">
<path d="M17.0987 23.6909H36.7876" stroke="#BC2112" stroke-width="0.8926" stroke-miterlimit="10" stroke-linecap="round" stroke-linejoin="round"/>
</g>
<mask id="mask5_52_31" style="mask-type:luminance" maskUnits="userSpaceOnUse" x="13" y="17" width="28" height="29">
<path d="M13.4069 17.9985H40.5624V45.1541H13.4069V17.9985Z" fill="white"/>
</mask>
<g mask="url(#mask5_52_31)">
<path d="M17.1866 39.3354H36.831" stroke="#BC2112" stroke-width="0.8926" stroke-miterlimit="10" stroke-linecap="round" stroke-linejoin="round"/>
</g>
<mask id="mask6_52_31" style="mask-type:luminance" maskUnits="userSpaceOnUse" x="13" y="17" width="28" height="29">
<path d="M13.4069 17.9985H40.5624V45.1541H13.4069V17.9985Z" fill="white"/>
</mask>
<g mask="url(#mask6_52_31)">
<path d="M17.4102 26.9316C18.388 26.9316 19.3658 26.9316 20.2991 26.9316H20.7435V27.3761H20.4324C19.6324 27.3761 19.7213 28.265 19.7213 29.2872C19.7213 29.6427 19.6769 32.9761 19.7213 32.9761L25.3213 26.9316H26.6102C26.6102 27.3316 26.6102 27.6872 26.6102 28.4428V33.8205C26.6102 35.0205 26.388 36.3094 27.3213 36.3094H27.6324V36.7539H27.1435C26.0324 36.7539 24.9213 36.7539 23.7658 36.7539V36.3094H24.1213C24.8324 36.3094 24.7435 34.7983 24.7435 33.8205V29.9983C24.7435 29.9983 19.2769 36.0427 18.6991 36.7094H17.8991C17.8991 34.3983 17.8991 31.5983 17.8991 29.2427C17.8991 28.265 17.988 27.3761 17.188 27.3761H16.8769V26.9316H17.4102Z" stroke="#BC2112" stroke-width="2.2573" stroke-miterlimit="22.9256"/>
</g>
<path d="M17.4111 26.9312C18.3888 26.9312 19.3666 26.9312 20.2999 26.9312H20.7444V27.3756H20.4333C19.6333 27.3756 19.7222 28.2645 19.7222 29.2867C19.7222 29.6423 19.6777 32.9756 19.7222 32.9756L25.3222 26.9312H26.611C26.611 27.3312 26.611 27.6867 26.611 28.4423V33.82C26.611 35.02 26.3888 36.3089 27.3222 36.3089H27.6333V36.7534H27.1444C26.0333 36.7534 24.9222 36.7534 23.7666 36.7534V36.3089H24.1222C24.8333 36.3089 24.7444 34.7978 24.7444 33.82V29.9978C24.7444 29.9978 19.2777 36.0423 18.6999 36.7089H17.8999C17.8999 34.3978 17.8999 31.5978 17.8999 29.2423C17.8999 28.2645 17.9888 27.3756 17.1888 27.3756H16.8777V26.9312H17.4111Z" fill="white"/>
<mask id="mask7_52_31" style="mask-type:luminance" maskUnits="userSpaceOnUse" x="13" y="17" width="28" height="29">
<path d="M13.4069 17.9985H40.5624V45.1541H13.4069V17.9985Z" fill="white"/>
</mask>
<g mask="url(#mask7_52_31)">
<path d="M28.9204 28.9791C28.876 30.4014 30.1649 30.1347 31.0982 30.1347C32.0316 30.1347 32.2093 30.1347 33.7204 30.1347C33.5871 27.468 32.5204 23.5569 27.8538 23.5569C25.4982 23.5569 23.0093 24.7569 22.6982 27.4236H21.5871L21.2316 23.2013L21.4538 22.8458C21.5871 22.8458 21.8982 22.8902 22.0316 22.8902C22.9649 22.9791 23.676 23.1125 23.8982 23.1125C24.9204 23.1125 27.1427 22.4902 28.2538 22.4902C31.0982 22.4902 37.276 24.0013 37.276 31.6458C37.276 37.7347 33.0982 40.7125 27.8538 40.7125C24.6093 40.7125 22.2093 39.068 21.0538 36.3569H22.876C24.5204 38.8458 25.8093 39.6014 27.676 39.6014C30.5649 39.6014 33.4982 37.068 33.7204 31.8236C32.0316 31.8236 31.8538 31.8236 30.9204 31.8236C29.9871 31.8236 28.9204 31.6458 28.9204 32.9791H28.3427C28.3871 31.6458 28.3871 31.5125 28.3871 31.1125C28.3871 30.5347 28.4316 30.3569 28.3427 29.068H28.9204V28.9791Z" fill="#BC2112" stroke="#BC2112" stroke-width="2.2597" stroke-miterlimit="22.9256"/>
</g>
<path d="M28.9221 28.9791C28.8777 30.4014 30.1666 30.1347 31.0999 30.1347C32.0332 30.1347 32.211 30.1347 33.7221 30.1347C33.5888 27.468 32.5221 23.5569 27.8555 23.5569C25.4999 23.5569 23.011 24.7569 22.6999 27.4236H21.5888L21.2332 23.2013L21.4555 22.8458C21.5888 22.8458 21.8999 22.8902 22.0332 22.8902C22.9666 22.9791 23.6777 23.1125 23.8999 23.1125C24.9221 23.1125 27.1443 22.4902 28.2555 22.4902C31.0999 22.4902 37.2777 24.0013 37.2777 31.6458C37.2777 37.7347 33.0999 40.7125 27.8555 40.7125C24.611 40.7125 22.211 39.068 21.0555 36.3569H22.8777C24.5221 38.8458 25.811 39.6014 27.6777 39.6014C30.5666 39.6014 33.4999 37.068 33.7221 31.8236C32.0332 31.8236 31.8555 31.8236 30.9221 31.8236C29.9888 31.8236 28.9221 31.6458 28.9221 32.9791H28.3443C28.3888 31.6458 28.3888 31.5125 28.3888 31.1125C28.3888 30.5347 28.4332 30.3569 28.3443 29.068H28.9221V28.9791Z" fill="white"/>
<path d="M23.1054 36.1318H23.6387" stroke="#BC2112" stroke-width="1.5065" stroke-miterlimit="22.9256"/>
<path d="M10.3032 3.42041V4.84263C10.3032 5.59819 10.3032 6.35374 10.2587 7.02041H10.3032C10.5699 6.44263 10.881 5.82041 11.1476 5.33152L12.1699 3.46485H13.281V8.26485H12.2587V6.84263C12.2587 6.08708 12.2587 5.46485 12.3476 4.84263C12.1254 5.42041 11.8143 6.04263 11.5476 6.53152L10.5699 8.26485H9.32541V3.42041H10.3032Z" fill="white"/>
<path d="M15.4127 3.42041V5.24263H17.1905V3.42041H18.2572V8.22041H17.1905V6.22041H15.4127V8.22041H14.3461V3.42041H15.4127Z" fill="white"/>
<path d="M22.9277 8.08758C22.7499 8.17647 22.261 8.3098 21.6832 8.3098C20.0388 8.3098 19.1499 7.28758 19.1499 5.9098C19.1499 4.26535 20.3055 3.37646 21.7721 3.37646C22.3499 3.37646 22.7499 3.5098 22.9721 3.59869L22.7499 4.44313C22.5277 4.35424 22.2166 4.26535 21.861 4.26535C21.0166 4.26535 20.3499 4.79869 20.3499 5.86535C20.3499 6.84313 20.9277 7.42091 21.9055 7.42091C22.2166 7.42091 22.6166 7.33202 22.7943 7.24313L22.9277 8.08758Z" fill="white"/>
<path d="M24.8333 4.31076H23.5444V3.42188H27.2333V4.31076H25.9444V8.17743H24.8778V4.31076H24.8333Z" fill="white"/>
<path d="M28.9235 3.42188V4.8441C28.9235 5.59965 28.9235 6.35521 28.8791 7.02187H28.9235C29.1902 6.4441 29.5013 5.82187 29.768 5.33298L30.7902 3.46632H31.9013V8.26632H30.9235V6.8441C30.9235 6.08854 30.9235 5.46632 31.0124 4.8441C30.7902 5.42187 30.4791 6.0441 30.2124 6.53298L29.1457 8.22187H27.9013V3.42188H28.9235Z" fill="white"/>
<path d="M33.9003 4.31076H32.6114V3.42188H36.3003V4.31076H35.0114V8.17743H33.9447V4.31076H33.9003Z" fill="white"/>
<path d="M37.9873 3.42091L38.6984 5.1098C38.8317 5.46535 38.9206 5.73202 39.054 6.04313C39.0984 5.82091 39.1873 5.5098 39.3206 5.1098L39.854 3.42091H41.0095L40.1206 5.73202C39.8095 6.48758 39.5429 7.19869 39.1873 7.64313C38.8762 8.04313 38.4762 8.26535 37.8984 8.26535C37.6317 8.26535 37.4984 8.22091 37.3651 8.17646L37.454 7.28758C37.5429 7.28758 37.6317 7.33202 37.8095 7.33202C38.1651 7.33202 38.3873 7.1098 38.4762 6.88757C38.5206 6.79869 38.4762 6.75424 38.4762 6.66535L36.8762 3.37646H37.9873V3.42091Z" fill="white"/>
<path d="M42.655 4.3093H41.3661V3.42041H45.055V4.3093H43.7661V8.17597H42.6995V4.3093H42.655Z" fill="white"/>
<path d="M5.32707 12.4888H7.37152C7.28263 11.8666 6.83818 11.3332 6.03818 11.3332C5.68263 11.3332 5.32707 11.4221 5.06041 11.511L4.83818 10.711C5.14929 10.5777 5.59374 10.4443 6.12707 10.4443C7.81596 10.4443 8.52707 11.5999 8.52707 12.9332C8.52707 14.5332 7.41596 15.4221 6.03818 15.4221C5.54929 15.4221 5.06041 15.2888 4.79374 15.1999L4.97152 14.3554C5.23818 14.4443 5.59374 14.5332 5.94929 14.5332C6.74929 14.5332 7.28263 14.0443 7.37152 13.3332H5.32707V12.4888Z" fill="white"/>
<path d="M10.4809 10.5342V12.5342H10.5698L11.9032 10.5342H13.2365L11.5476 12.6675C12.1698 12.8453 12.4365 13.2453 12.6587 13.8231C12.8365 14.3564 12.9698 14.8453 13.192 15.3342H12.0365C11.8587 15.0231 11.7698 14.6231 11.6809 14.2675C11.5032 13.7342 11.2809 13.3342 10.7032 13.3342H10.4809V15.3342H9.41428V10.5342H10.4809Z" fill="white"/>
<path d="M18.1195 12.8888C18.1195 14.4443 17.1862 15.4221 15.7639 15.4221C14.3417 15.4221 13.4973 14.3554 13.4973 12.9777C13.4973 11.5554 14.4306 10.4443 15.8528 10.4443C17.3195 10.4443 18.1195 11.5554 18.1195 12.8888ZM14.6528 12.9332C14.6528 13.8666 15.0973 14.5332 15.8084 14.5332C16.5195 14.5332 16.9639 13.8221 16.9639 12.8888C16.9639 12.0443 16.5639 11.2888 15.8084 11.2888C15.0973 11.2888 14.6528 11.9999 14.6528 12.9332Z" fill="white"/>
<path d="M20.0768 10.5342V12.3564H21.8546V10.5342H22.9212V15.3342H21.8546V13.3342H20.0768V15.3342H19.0101V10.5342H20.0768Z" fill="white"/>
<path d="M28.432 12.8888C28.432 14.4443 27.4987 15.4221 26.0764 15.4221C24.6542 15.3777 23.8098 14.311 23.8098 12.9777C23.8098 11.5554 24.7431 10.4443 26.1653 10.4443C27.632 10.4443 28.432 11.5554 28.432 12.8888ZM24.9653 12.9332C24.9653 13.8666 25.4098 14.5332 26.1209 14.5332C26.832 14.5332 27.2764 13.8221 27.2764 12.8888C27.2764 12.0443 26.8764 11.2888 26.1209 11.2888C25.3653 11.2888 24.9653 11.9999 24.9653 12.9332Z" fill="white"/>
<path d="M33.3196 13.4675C33.3196 12.8897 33.2752 12.1786 33.2752 11.512C33.1418 12.1342 32.9196 12.8008 32.7418 13.3786L32.164 15.2453H31.3196L30.7863 13.3786C30.6085 12.8008 30.4751 12.1342 30.3418 11.512C30.2974 12.1786 30.2974 12.8897 30.2529 13.512L30.164 15.3342H29.1418L29.4529 10.5342H30.9196L31.4085 12.1342C31.5418 12.6675 31.7196 13.2897 31.8085 13.8675C31.9418 13.3342 32.1196 12.6675 32.2529 12.1342L32.7863 10.5342H34.2085L34.4751 15.3342H33.4085L33.3196 13.4675Z" fill="white"/>
<path d="M36.4317 10.5342V11.9564C36.4317 12.712 36.4317 13.4675 36.3873 14.1342H36.4317C36.6984 13.5564 37.0095 12.9342 37.2762 12.4453L38.2984 10.5786H39.4095V15.3786H38.4317V13.9564C38.4317 13.2008 38.4317 12.5786 38.5206 11.9564C38.2984 12.5342 37.9873 13.1564 37.7206 13.6453L36.7428 15.3786H35.4984V10.5342H36.4317Z" fill="white"/>
<path d="M41.5455 10.5342V12.5342H41.6344L42.9678 10.5342H44.3011L42.6122 12.6675C43.2344 12.8453 43.5011 13.2453 43.7233 13.8231C43.9011 14.3564 44.0344 14.8453 44.2566 15.3342H43.1011C42.9233 15.0231 42.8344 14.6231 42.7455 14.2675C42.5678 13.7342 42.3455 13.3342 41.7678 13.3342H41.5455V15.3342H40.4789V10.5342H41.5455Z" fill="white"/>
<path d="M45.8988 10.5342V11.9564C45.8988 12.712 45.8988 13.4675 45.8544 14.1342H45.8988C46.1655 13.5564 46.4766 12.9342 46.7433 12.4453L47.7655 10.5786H48.8766V15.3786H47.8988V13.9564C47.8988 13.2008 47.8988 12.5786 47.9877 11.9564C47.7655 12.5342 47.4544 13.1564 47.1877 13.6453L46.2099 15.3786H44.9655V10.5342H45.8988Z" fill="white"/>
<path d="M10.216 47.8208C10.4383 47.7764 10.7938 47.7319 11.2827 47.7319C11.7716 47.7319 12.1271 47.8208 12.3494 47.9986C12.5716 48.1764 12.7049 48.443 12.7049 48.7986C12.7049 49.1542 12.5716 49.4208 12.3938 49.5986C12.1271 49.8653 11.7271 49.9542 11.2827 49.9542C11.1938 49.9542 11.1049 49.9542 11.016 49.9542V51.1986H10.2605V47.8208H10.216ZM10.9716 49.3764C11.016 49.3764 11.1049 49.3764 11.2383 49.3764C11.6383 49.3764 11.9049 49.1542 11.9049 48.7986C11.9049 48.4875 11.6827 48.3097 11.2827 48.3097C11.1049 48.3097 11.016 48.3097 10.9716 48.3542V49.3764Z" fill="white"/>
<path d="M16.4798 49.4213C16.4798 50.5324 15.8131 51.2435 14.7909 51.2435C13.7687 51.2435 13.1909 50.488 13.1909 49.5102C13.1909 48.488 13.8576 47.688 14.8798 47.688C15.902 47.688 16.4798 48.488 16.4798 49.4213ZM13.9909 49.5102C13.9909 50.1769 14.302 50.6658 14.8354 50.6658C15.3687 50.6658 15.6798 50.1769 15.6798 49.5102C15.6798 48.888 15.3687 48.3547 14.8354 48.3547C14.2576 48.3102 13.9909 48.7991 13.9909 49.5102Z" fill="white"/>
<path d="M19.6361 51.1102C19.5028 51.1991 19.1917 51.2435 18.7472 51.2435C17.5472 51.2435 16.925 50.488 16.925 49.5102C16.925 48.3547 17.7695 47.688 18.7917 47.688C19.1917 47.688 19.5028 47.7769 19.6361 47.8213L19.4584 48.4435C19.2806 48.3991 19.0584 48.3102 18.7917 48.3102C18.1695 48.3102 17.6806 48.6658 17.6806 49.4658C17.6806 50.1769 18.0806 50.5769 18.7917 50.5769C19.0139 50.5769 19.2806 50.5324 19.4584 50.4435L19.6361 51.1102Z" fill="white"/>
<path d="M22.7041 51.1102C22.5707 51.1991 22.2596 51.2435 21.8152 51.2435C20.6152 51.2435 19.993 50.488 19.993 49.5102C19.993 48.3547 20.8374 47.688 21.8596 47.688C22.2596 47.688 22.5707 47.7769 22.7041 47.8213L22.5263 48.4435C22.3485 48.3991 22.1263 48.3102 21.8596 48.3102C21.2374 48.3102 20.7485 48.6658 20.7485 49.4658C20.7485 50.1769 21.1485 50.5769 21.8596 50.5769C22.0818 50.5769 22.3485 50.5324 22.5263 50.4435L22.7041 51.1102Z" fill="white"/>
<path d="M24.0799 47.7764V48.7986C24.0799 49.3319 24.0799 49.9097 24.0355 50.3542C24.2132 49.9542 24.4355 49.5097 24.6577 49.1097L25.4132 47.7764H26.2132V51.243H25.5021V50.2208C25.5021 49.6875 25.5021 49.1986 25.5466 48.7542C25.3688 49.1542 25.1466 49.5986 24.9688 49.9986L24.2577 51.1986H23.3688V47.7319H24.0799V47.7764Z" fill="white"/>
<path d="M27.7713 47.778V48.8002C27.7713 49.3336 27.7713 49.9114 27.7269 50.3558C27.9046 49.9558 28.1269 49.5114 28.3491 49.1114L29.1046 47.778H29.9046V51.2447H29.1935V50.2225C29.1935 49.6891 29.1935 49.2002 29.238 48.7558C29.0602 49.1558 28.838 49.6003 28.6602 50.0002L27.9491 51.2447H27.0602V47.778H27.7713ZM28.2602 46.978C28.2602 47.1558 28.3046 47.2891 28.4824 47.2891C28.6602 47.2891 28.7046 47.1558 28.7046 46.978H29.238C29.1935 47.4225 28.9269 47.6003 28.4824 47.6003C28.038 47.6003 27.7713 47.4225 27.7269 46.978H28.2602Z" fill="white"/>
<path d="M33.2819 51.1102C33.1486 51.1991 32.8375 51.2435 32.393 51.2435C31.193 51.2435 30.5708 50.488 30.5708 49.5102C30.5708 48.3547 31.4152 47.688 32.4375 47.688C32.8375 47.688 33.1486 47.7769 33.2819 47.8213L33.1041 48.4435C32.9264 48.3991 32.7041 48.3102 32.4375 48.3102C31.8152 48.3102 31.3264 48.6658 31.3264 49.4658C31.3264 50.1769 31.7264 50.5769 32.4375 50.5769C32.6597 50.5769 32.9264 50.5324 33.1041 50.4435L33.2819 51.1102Z" fill="white"/>
<path d="M34.7005 47.7764V49.1986H34.745L35.6783 47.7764H36.6116L35.4116 49.2875C35.8561 49.4208 36.0339 49.6875 36.2116 50.1319C36.345 50.4875 36.4339 50.8875 36.6116 51.1986H35.8116C35.6783 50.9764 35.6339 50.7097 35.545 50.443C35.4116 50.043 35.2783 49.7764 34.8339 49.7764H34.7005V51.1986H33.945V47.7319H34.7005V47.7764Z" fill="white"/>
<path d="M40.253 49.4213C40.253 50.5324 39.5863 51.2435 38.5641 51.2435C37.5419 51.2435 36.9641 50.488 36.9641 49.5102C36.9641 48.488 37.6307 47.688 38.653 47.688C39.6752 47.688 40.253 48.488 40.253 49.4213ZM37.7641 49.5102C37.7641 50.1769 38.0752 50.6658 38.6085 50.6658C39.1419 50.6658 39.453 50.1769 39.453 49.5102C39.453 48.888 39.1419 48.3547 38.6085 48.3547C38.0752 48.3102 37.7641 48.7991 37.7641 49.5102Z" fill="white"/>
<path d="M41.6311 47.778V48.8002C41.6311 49.3336 41.6311 49.9114 41.5867 50.3558C41.7644 49.9558 41.9867 49.5114 42.2089 49.1114L42.9644 47.778H43.7644V51.2447H43.0533V50.2225C43.0533 49.6891 43.0533 49.2002 43.0978 48.7558C42.92 49.1558 42.6978 49.6003 42.52 50.0002L41.8089 51.2447H40.92V47.778H41.6311ZM42.12 46.978C42.12 47.1558 42.1644 47.2891 42.3422 47.2891C42.52 47.2891 42.5644 47.1558 42.5644 46.978H43.0978C43.0533 47.4225 42.7867 47.6003 42.3422 47.6003C41.8978 47.6003 41.6311 47.4225 41.5867 46.978H42.12Z" fill="white"/>
<path d="M6.25675 55.6427L5.99009 56.5316H5.19009L6.25675 53.0649H7.27898L8.34564 56.5316H7.5012L7.23453 55.6427H6.25675ZM7.14564 55.0649L6.92342 54.3538C6.87898 54.1316 6.79009 53.9094 6.74564 53.6872C6.7012 53.9094 6.65675 54.1316 6.56787 54.3538L6.34564 55.0649H7.14564Z" fill="white"/>
<path d="M9.72669 53.0645V54.4867H9.77114L10.7045 53.0645H11.6378L10.4378 54.5756C10.8822 54.7089 11.06 54.9756 11.2378 55.42C11.3711 55.7756 11.46 56.1756 11.6378 56.4867H10.7934C10.66 56.2645 10.6156 55.9978 10.5267 55.7311C10.3934 55.3311 10.26 55.0645 9.81558 55.0645H9.68225V56.4867H8.92669V53.02H9.72669V53.0645Z" fill="white"/>
<path d="M13.0588 55.6427L12.7921 56.5316H11.9921L13.0588 53.0649H14.081L15.1477 56.5316H14.3032L14.0366 55.6427H13.0588ZM13.9477 55.0649L13.7255 54.3538C13.681 54.1316 13.5921 53.9094 13.5477 53.6872C13.5032 53.9094 13.4588 54.1316 13.3699 54.3538L13.1477 55.0649H13.9477Z" fill="white"/>
<path d="M18.5676 53.0649V55.9094H18.9231L18.8787 57.3761H18.3009L18.2564 56.4872H16.2564L16.212 57.3761H15.6342L15.5898 55.9094H15.8564C15.9898 55.6427 16.1231 55.4205 16.1676 55.1538C16.2564 54.7983 16.3009 54.4427 16.3009 53.9983V53.0649H18.5676ZM17.012 54.1761C17.012 54.5761 16.9676 54.9761 16.8787 55.3316C16.8342 55.5538 16.7453 55.7316 16.6564 55.9094H17.812V53.7316H17.0564V54.1761H17.012Z" fill="white"/>
<path d="M21.5474 55.0645H20.2586V55.8645H21.6808V56.4867H19.503V53.02H21.6363V53.6422H20.303V54.3534H21.5919V55.0645H21.5474Z" fill="white"/>
<path d="M25.2781 55.1978C25.2781 54.7978 25.2337 54.2645 25.2337 53.7756C25.1448 54.22 24.967 54.7089 24.8337 55.1089L24.4337 56.4422H23.8115L23.4559 55.1089C23.3226 54.7089 23.2337 54.22 23.1448 53.7756C23.1448 54.22 23.1004 54.7534 23.1004 55.1978L23.0559 56.4867H22.3448L22.567 53.02H23.5892L23.9448 54.1756C24.0337 54.5756 24.167 55.02 24.2559 55.42C24.3448 55.02 24.4781 54.5756 24.567 54.1756L24.9226 53.02H25.9448L26.1226 56.4867H25.367L25.2781 55.1978Z" fill="white"/>
<path d="M27.5936 53.0649V54.0872C27.5936 54.6205 27.5936 55.1983 27.5491 55.6427C27.7269 55.2427 27.9491 54.7983 28.1714 54.3983L28.9269 53.0649H29.7269V56.5316H29.0158V55.5094C29.0158 54.9761 29.0158 54.4872 29.0602 54.0427C28.8825 54.4427 28.6602 54.8872 28.4825 55.2872L27.7714 56.5316H26.8825V53.0649H27.5936Z" fill="white"/>
<path d="M31.2322 53.0649V54.0872C31.2322 54.6205 31.2322 55.1983 31.1878 55.6427C31.3656 55.2427 31.5878 54.7983 31.81 54.3983L32.5656 53.0649H33.3656V56.5316H32.6545V55.5094C32.6545 54.9761 32.6545 54.4872 32.6989 54.0427C32.5211 54.4427 32.2989 54.8872 32.1211 55.2872L31.41 56.5316H30.5211V53.0649H31.2322Z" fill="white"/>
<path d="M36.7035 53.0649V54.3983H37.9924V53.0649H38.748V56.5316H37.9924V55.1094H36.7035V56.5316H35.9035V53.0649H36.7035Z" fill="white"/>
<path d="M40.3921 55.6427L40.1254 56.5316H39.3254L40.3921 53.0649H41.4143L42.481 56.5316H41.6365L41.3699 55.6427H40.3921ZM41.281 55.0649L41.0587 54.3538C41.0143 54.1316 40.9254 53.9094 40.881 53.6872C40.8365 53.9094 40.7921 54.1316 40.7032 54.3538L40.481 55.0649H41.281Z" fill="white"/>
<path d="M43.4983 53.0649L43.9872 54.2649C44.0761 54.5316 44.165 54.7094 44.2094 54.9316C44.2539 54.7983 44.2983 54.5316 44.3872 54.2649L44.7427 53.0649H45.5427L44.8761 54.7538C44.6539 55.2872 44.4316 55.8205 44.2094 56.1316C43.9872 56.3983 43.6761 56.5761 43.2761 56.5761C43.0983 56.5761 43.0094 56.5761 42.8761 56.5316L42.9205 55.9094C42.965 55.9094 43.0539 55.9538 43.1872 55.9538C43.4094 55.9538 43.5872 55.7761 43.6316 55.6427C43.6761 55.5983 43.6316 55.5538 43.6316 55.4649L42.4761 53.1094H43.4983V53.0649Z" fill="white"/>
<path d="M46.882 53.0645V54.4867H46.9709L47.9042 53.0645H48.8376L47.6376 54.5756C48.082 54.7089 48.2598 54.9756 48.4376 55.42C48.5709 55.7756 48.6598 56.1756 48.8376 56.4867H47.9931C47.8598 56.2645 47.8154 55.9978 47.7265 55.7311C47.5931 55.3311 47.4598 55.0645 47.0154 55.0645H46.882V56.4867H46.1265V53.02H46.882V53.0645Z" fill="white"/>
</g>
<defs>
<clipPath id="clip0_52_31">
<rect width="53.8667" height="70" fill="white" transform="translate(0.0345306)"/>
</clipPath>
</defs>
</svg>
